# xmcd CD database file
#
# Track frame offsets:
#	150
#	15431
#	29859
#	57174
#	80394
#	98850
#	127909
#	144427
#	173722
#	191432
#	208338
#	229630
#
# Disc length: 3119 seconds
#
# Revision: 0
# Processed by: cddbd v1.5.1PL0 Copyright (c) Steve Scherf et al.
# Submitted via: CDex 1.51
#
DISCID=9b0c2d0c
DTITLE=Chute Nine - Fifty Ways Bad
DYEAR=2002
DGENRE=Country
TTITLE0=Fifty ways bad
TTITLE1=Country knows how to rock
TTITLE2=A time before us
TTITLE3=hardcore
TTITLE4=Plat that country music
TTITLE5=wanderin ways
TTITLE6=Take me home
TTITLE7=Dancin in the desert
TTITLE8=Drinkin to forget
TTITLE9=You ain't seen nothin like it
TTITLE10=I don't know
TTITLE11=Bonus track
EXTD=YEAR: 2002
EXTT0=
EXTT1=
EXTT2=
EXTT3=
EXTT4=
EXTT5=
EXTT6=
EXTT7=
EXTT8=
EXTT9=
EXTT10=
EXTT11=
PLAYORDER=
